<svg width="25" height="25" viewBox="0 0 25 25" fill="none" xmlns="http://www.w3.org/2000/svg">
<path d="M19.1049 16.7286V6.16129C19.1062 5.86357 19.0484 5.56856 18.9351 5.29326C18.8217 5.01796 18.655 4.76784 18.4445 4.55732C18.2339 4.3468 17.9838 4.18005 17.7085 4.0667C17.4332 3.95334 17.1382 3.89562 16.8405 3.89687H4.00879" stroke="#0152A8" stroke-linecap="round" stroke-linejoin="round"/>
<path d="M10.0469 9.9353H16.0853" stroke="#0152A8" stroke-linecap="round" stroke-linejoin="round"/>
<path d="M10.0469 12.9543H16.0853" stroke="#0152A8" stroke-linecap="round" stroke-linejoin="round"/>
<path d="M2.31968 7.67089C2.07525 7.39722 1.90099 7.06825 1.8119 6.71229C1.72281 6.35634 1.72155 5.98407 1.80824 5.62752C1.89493 5.27097 2.06697 4.94083 2.30954 4.66552C2.55212 4.3902 2.85797 4.17796 3.20076 4.04706C3.54355 3.91616 3.91302 3.87053 4.27736 3.91408C4.6417 3.95764 4.99 4.08908 5.29227 4.2971C5.59455 4.50512 5.84174 4.78348 6.01258 5.10822C6.18342 5.43296 6.27278 5.79435 6.27298 6.16128V18.2382C6.27318 18.6051 6.36254 18.9665 6.53338 19.2912C6.70422 19.616 6.95141 19.8943 7.25369 20.1024C7.55596 20.3104 7.90426 20.4418 8.2686 20.4854C8.63294 20.5289 9.00241 20.4833 9.3452 20.3524C9.68799 20.2215 9.99384 20.0093 10.2364 19.734C10.479 19.4586 10.651 19.1285 10.7377 18.7719C10.8244 18.4154 10.8232 18.0431 10.7341 17.6872C10.645 17.3312 10.4707 17.0022 10.2263 16.7286H20.7936C21.0851 17.0545 21.276 17.4578 21.3432 17.8898C21.4105 18.3218 21.3513 18.764 21.1727 19.1631C20.9941 19.5622 20.7038 19.9011 20.3368 20.1387C19.9698 20.3764 19.5419 20.5028 19.1047 20.5026H8.5374" stroke="#0152A8" stroke-linecap="round" stroke-linejoin="round"/>
</svg>
