<svg width="19" height="14" viewBox="0 0 19 14" fill="none" xmlns="http://www.w3.org/2000/svg">
<path d="M15.9269 0.232422H2.75909C2.17723 0.233025 1.61938 0.457433 1.20794 0.856405C0.796496 1.25538 0.565076 1.79633 0.564453 2.36056V11.4811C0.565076 12.0454 0.796496 12.5863 1.20794 12.9853C1.61938 13.3843 2.17723 13.6087 2.75909 13.6093H15.9269C16.5088 13.6087 17.0667 13.3843 17.4781 12.9853C17.8895 12.5863 18.121 12.0454 18.1216 11.4811V2.36056C18.121 1.79633 17.8895 1.25538 17.4781 0.856405C17.0667 0.457433 16.5088 0.233025 15.9269 0.232422ZM15.3712 3.75259L9.72786 8.00886C9.61782 8.09182 9.4824 8.13685 9.34302 8.13685C9.20363 8.13685 9.06822 8.09182 8.95817 8.00886L3.31481 3.75259C3.2485 3.70403 3.19281 3.64319 3.15097 3.57358C3.10913 3.50397 3.08197 3.427 3.07107 3.34713C3.06017 3.26725 3.06575 3.18608 3.08748 3.10831C3.10921 3.03055 3.14667 2.95775 3.19767 2.89414C3.24867 2.83054 3.3122 2.7774 3.38456 2.7378C3.45692 2.69821 3.53668 2.67296 3.61919 2.66352C3.70171 2.65407 3.78533 2.66063 3.86521 2.68279C3.94509 2.70496 4.01963 2.7423 4.0845 2.79265L9.34302 6.75858L14.6015 2.79265C14.733 2.69636 14.8983 2.65412 15.0617 2.67508C15.225 2.69604 15.3733 2.77851 15.4744 2.90465C15.5756 3.03079 15.6214 3.19046 15.6021 3.34914C15.5828 3.50782 15.4999 3.65275 15.3712 3.75259Z" fill="#0152A8"/>
</svg>
