<svg width="23" height="18" viewBox="0 0 23 18" fill="none" xmlns="http://www.w3.org/2000/svg">
<path d="M22.4418 2.56777C21.6364 2.91747 20.7842 3.14787 19.9122 3.25167C20.8286 2.71544 21.5178 1.86356 21.8504 0.855779C20.984 1.36204 20.0377 1.71726 19.052 1.90621C18.637 1.47153 18.1378 1.12572 17.5848 0.889815C17.0318 0.65391 16.4366 0.532833 15.8354 0.533943C13.4011 0.533943 11.4311 2.4739 11.4311 4.86531C11.4294 5.19795 11.4676 5.5296 11.5448 5.85317C9.79919 5.7714 8.08994 5.32643 6.52633 4.54672C4.96273 3.76702 3.57921 2.66975 2.46428 1.32512C2.07314 1.98405 1.86628 2.73586 1.86533 3.50198C1.86533 5.00388 2.64947 6.33146 3.83351 7.10923C3.132 7.09259 2.44487 6.90705 1.83044 6.56836V6.622C1.83044 8.72287 3.35131 10.4706 5.36422 10.8684C4.98569 10.9693 4.59563 11.0204 4.20389 11.0204C3.92592 11.0209 3.64858 10.994 3.37591 10.94C3.9355 12.6609 5.56417 13.9125 7.49343 13.9482C5.92577 15.1555 4.00108 15.8081 2.02189 15.8033C1.67058 15.8027 1.31959 15.7818 0.970703 15.7407C2.98414 17.0254 5.32461 17.705 7.71351 17.6985C15.826 17.6985 20.258 11.0964 20.258 5.37042C20.258 5.18268 20.2531 4.99494 20.2441 4.81168C21.1043 4.20021 21.8485 3.44035 22.4418 2.56777Z" fill="white"/>
</svg>
