<svg width="23" height="22" viewBox="0 0 23 22" fill="none" xmlns="http://www.w3.org/2000/svg">
<path d="M16.4789 2.1917C17.7077 2.19523 18.8851 2.66652 19.754 3.50263C20.6229 4.33875 21.1127 5.47175 21.1164 6.6542V15.5782C21.1127 16.7607 20.6229 17.8937 19.754 18.7298C18.8851 19.5659 17.7077 20.0372 16.4789 20.0407H7.20502C5.97622 20.0372 4.7988 19.5659 3.9299 18.7298C3.06101 17.8937 2.57124 16.7607 2.56757 15.5782V6.6542C2.57124 5.47175 3.06101 4.33875 3.9299 3.50263C4.7988 2.66652 5.97622 2.19523 7.20502 2.1917H16.4789ZM16.4789 0.406982H7.20502C3.63427 0.406982 0.712891 3.21816 0.712891 6.6542V15.5782C0.712891 19.0143 3.63427 21.8255 7.20502 21.8255H16.4789C20.0497 21.8255 22.971 19.0143 22.971 15.5782V6.6542C22.971 3.21816 20.0497 0.406982 16.4789 0.406982Z" fill="white"/>
<path d="M17.87 6.6546C17.5948 6.6546 17.3259 6.57609 17.0971 6.429C16.8683 6.28191 16.69 6.07284 16.5847 5.82823C16.4794 5.58362 16.4519 5.31447 16.5056 5.05479C16.5592 4.79512 16.6917 4.55659 16.8863 4.36938C17.0808 4.18216 17.3287 4.05467 17.5986 4.00302C17.8684 3.95137 18.1481 3.97787 18.4023 4.07919C18.6565 4.18051 18.8738 4.35209 19.0267 4.57223C19.1795 4.79237 19.2611 5.05119 19.2611 5.31595C19.2615 5.49185 19.2258 5.66609 19.156 5.82868C19.0862 5.99126 18.9838 6.13898 18.8545 6.26337C18.7253 6.38775 18.5718 6.48634 18.4028 6.55348C18.2338 6.62062 18.0528 6.65498 17.87 6.6546ZM11.8419 7.54672C12.5756 7.54672 13.2929 7.75609 13.903 8.14836C14.5131 8.54063 14.9886 9.09817 15.2693 9.75048C15.5501 10.4028 15.6236 11.1206 15.4805 11.8131C15.3373 12.5056 14.984 13.1417 14.4651 13.6409C13.9463 14.1402 13.2853 14.4802 12.5656 14.6179C11.846 14.7557 11.1001 14.685 10.4222 14.4148C9.7443 14.1446 9.1649 13.687 8.75725 13.1C8.34961 12.5129 8.13203 11.8227 8.13203 11.1166C8.13308 10.1701 8.52428 9.26271 9.21978 8.59344C9.91529 7.92417 10.8583 7.54773 11.8419 7.54672ZM11.8419 5.76201C10.7413 5.76201 9.66548 6.07605 8.75039 6.66442C7.83531 7.2528 7.12209 8.08907 6.70092 9.0675C6.27975 10.0459 6.16956 11.1226 6.38427 12.1613C6.59898 13.2 7.12895 14.1541 7.90716 14.9029C8.68538 15.6518 9.67688 16.1617 10.7563 16.3684C11.8357 16.575 12.9546 16.4689 13.9713 16.0637C14.9881 15.6584 15.8572 14.9721 16.4686 14.0915C17.0801 13.2109 17.4064 12.1757 17.4064 11.1166C17.4064 9.69649 16.8202 8.33453 15.7766 7.33034C14.7331 6.32615 13.3177 5.76201 11.8419 5.76201Z" fill="white"/>
</svg>
