<svg width="16" height="16" viewBox="0 0 16 16" fill="none" xmlns="http://www.w3.org/2000/svg">
<path d="M7.79995 11.1927C9.39162 11.1927 10.6819 9.90236 10.6819 8.31069C10.6819 6.71902 9.39162 5.42871 7.79995 5.42871C6.20827 5.42871 4.91797 6.71902 4.91797 8.31069C4.91797 9.90236 6.20827 11.1927 7.79995 11.1927Z" stroke="white" stroke-linecap="round" stroke-linejoin="round"/>
<path d="M11.6254 14.0746C10.3415 14.927 8.8098 15.3262 7.27321 15.209C5.73663 15.0917 4.28321 14.4646 3.14359 13.4273C2.00396 12.3899 1.2434 11.0017 0.982596 9.48285C0.721789 7.96402 0.97567 6.40159 1.70396 5.04349C2.43224 3.68538 3.59321 2.60938 5.00266 1.98623C6.4121 1.36307 7.98929 1.22846 9.48395 1.60374C10.9786 1.97902 12.3051 2.8427 13.2531 4.05774C14.201 5.27278 14.716 6.76958 14.7163 8.31063C14.7163 9.90293 14.1399 11.1926 12.6989 11.1926C11.2579 11.1926 10.6815 9.90293 10.6815 8.31063V5.42866" stroke="white" stroke-linecap="round" stroke-linejoin="round"/>
</svg>
