<svg width="16" height="15" viewBox="0 0 16 15" fill="none" xmlns="http://www.w3.org/2000/svg">
<path d="M5.03463 7.5399C5.63206 8.77363 6.62967 9.76868 7.86493 10.3629C7.95605 10.4061 8.05683 10.4248 8.15736 10.4171C8.25788 10.4095 8.35469 10.3758 8.43825 10.3194L10.2525 9.10745C10.3327 9.05308 10.4253 9.01991 10.5218 9.01103C10.6182 9.00214 10.7153 9.01784 10.8041 9.05665L14.2004 10.5153C14.3165 10.5637 14.4135 10.6488 14.4764 10.7576C14.5394 10.8665 14.5648 10.993 14.5488 11.1177C14.4411 11.9579 14.031 12.7301 13.3952 13.2897C12.7594 13.8494 11.9414 14.1583 11.0944 14.1584C8.47675 14.1584 5.96634 13.1186 4.1154 11.2677C2.26446 9.41672 1.22461 6.90631 1.22461 4.28868C1.2248 3.44162 1.53363 2.62365 2.09331 1.98783C2.65299 1.35201 3.42518 0.94191 4.26537 0.834263C4.39007 0.818244 4.51659 0.843664 4.62543 0.906608C4.73427 0.969552 4.8194 1.06653 4.86771 1.18261L6.32641 4.58623C6.36434 4.67356 6.38021 4.76889 6.37262 4.86381C6.36502 4.95873 6.3342 5.05032 6.28286 5.13051L5.07092 6.97384C5.01696 7.05721 4.98529 7.15303 4.97894 7.25214C4.97258 7.35124 4.99176 7.45032 5.03463 7.5399V7.5399Z" stroke="white" stroke-linecap="round" stroke-linejoin="round"/>
</svg>
