<svg width="25" height="24" viewBox="0 0 25 24" fill="none" xmlns="http://www.w3.org/2000/svg">
<path d="M11.222 1.6086C11.5214 0.687287 12.8248 0.687289 13.1242 1.6086L15.2826 8.25156C15.4165 8.66359 15.8004 8.94255 16.2336 8.94255L23.2185 8.94255C24.1872 8.94255 24.59 10.1822 23.8063 10.7516L18.1554 14.8571C17.8049 15.1118 17.6583 15.5632 17.7921 15.9752L19.9506 22.6181C20.2499 23.5395 19.1954 24.3056 18.4117 23.7362L12.7609 19.6306C12.4104 19.376 11.9358 19.376 11.5853 19.6306L5.93447 23.7362C5.15075 24.3056 4.09628 23.5395 4.39563 22.6181L6.55406 15.9752C6.68793 15.5632 6.54128 15.1118 6.19079 14.8571L0.539942 10.7516C-0.243772 10.1822 0.159005 8.94255 1.12773 8.94255L8.11256 8.94255C8.54578 8.94255 8.92974 8.66359 9.06361 8.25156L11.222 1.6086Z" fill="#FBB837"/>
</svg>
