<svg width="16" height="16" viewBox="0 0 16 16" fill="none" xmlns="http://www.w3.org/2000/svg">
<path d="M15.4682 11.5577C15.2904 11.3684 14.6628 10.8085 13.5091 10.0679C12.3468 9.32073 11.4896 8.85488 11.2438 8.74625C11.2221 8.73663 11.1982 8.73311 11.1747 8.73605C11.1512 8.73899 11.1289 8.74828 11.1103 8.76293C10.7142 9.0718 10.0474 9.63914 10.0117 9.66979C9.7808 9.86764 9.7808 9.86764 9.5918 9.806C9.25943 9.69703 8.22691 9.14876 7.3272 8.24702C6.42749 7.34527 5.85095 6.28721 5.74198 5.95519C5.67966 5.76585 5.67966 5.76585 5.8782 5.53496C5.90884 5.49921 6.47653 4.83243 6.7854 4.43672C6.80005 4.41809 6.80934 4.39582 6.81228 4.3723C6.81522 4.34878 6.8117 4.3249 6.80209 4.30323C6.69345 4.05702 6.22759 3.20023 5.48044 2.03797C4.73874 0.884561 4.17957 0.256948 3.99023 0.0791866C3.97286 0.0627907 3.95138 0.0513847 3.92807 0.0461707C3.90475 0.0409566 3.88047 0.0421274 3.85776 0.0495598C3.19591 0.277001 2.55733 0.567212 1.95073 0.916232C1.36514 1.25664 0.810745 1.64808 0.293994 2.08598C0.275956 2.10132 0.262432 2.12127 0.254873 2.14371C0.247314 2.16615 0.246005 2.19022 0.251086 2.21334C0.322259 2.54503 0.66246 3.92966 1.71814 5.84758C2.79527 7.805 3.54174 8.80788 5.12356 10.3842C6.70537 11.9606 7.73994 12.752 9.69941 13.8291C11.6173 14.8848 13.0027 15.2253 13.3337 15.2958C13.3568 15.3009 13.381 15.2995 13.4034 15.292C13.4259 15.2844 13.4459 15.2709 13.4614 15.2529C13.8992 14.7362 14.2905 14.1818 14.6308 13.5962C14.9798 12.9896 15.27 12.351 15.4975 11.6892C15.5048 11.6667 15.5059 11.6426 15.5007 11.6195C15.4956 11.5964 15.4843 11.575 15.4682 11.5577Z" fill="#0152A8"/>
</svg>
