<svg width="20" height="20" viewBox="0 0 20 20" fill="none" xmlns="http://www.w3.org/2000/svg">
<path d="M18.5603 7.7431C18.2243 7.39825 17.8795 7.03571 17.7468 6.72622C17.6142 6.41673 17.623 5.95692 17.6142 5.48827C17.6054 4.63055 17.5877 3.64904 16.9068 2.96817C16.2259 2.2873 15.2444 2.26962 14.3867 2.26077C13.918 2.25193 13.4406 2.24309 13.1488 2.12814C12.8569 2.01318 12.4767 1.65064 12.1319 1.31463C11.5217 0.731026 10.8232 0.0678406 9.90356 0.0678406C8.98395 0.0678406 8.28539 0.731026 7.67526 1.31463C7.33041 1.65064 6.96787 1.9955 6.65838 2.12814C6.34889 2.26077 5.88908 2.25193 5.42043 2.26077C4.56271 2.26962 3.5812 2.2873 2.90033 2.96817C2.21946 3.64904 2.20177 4.63055 2.19293 5.48827C2.18409 5.95692 2.17525 6.43442 2.0603 6.72622C1.94534 7.01802 1.5828 7.39825 1.24679 7.7431C0.663185 8.35323 0 9.05179 0 9.97141C0 10.891 0.663185 11.5896 1.24679 12.1997C1.5828 12.5446 1.92766 12.9071 2.0603 13.2166C2.19293 13.5261 2.18409 13.9859 2.19293 14.4545C2.20177 15.3123 2.21946 16.2938 2.90033 16.9746C3.5812 17.6555 4.56271 17.6732 5.42043 17.682C5.88908 17.6909 6.36658 17.6997 6.65838 17.8147C6.95018 17.9296 7.33041 18.2922 7.67526 18.6282C8.28539 19.2118 8.98395 19.875 9.90356 19.875C10.8232 19.875 11.5217 19.2118 12.1319 18.6282C12.4767 18.2922 12.8393 17.9473 13.1488 17.8147C13.4582 17.682 13.918 17.6909 14.3867 17.682C15.2444 17.6732 16.2259 17.6555 16.9068 16.9746C17.5877 16.2938 17.6054 15.3123 17.6142 14.4545C17.623 13.9859 17.6319 13.5084 17.7468 13.2166C17.8618 12.9248 18.2243 12.5446 18.5603 12.1997C19.1439 11.5896 19.8071 10.891 19.8071 9.97141C19.8071 9.05179 19.1439 8.35323 18.5603 7.7431ZM14.2806 8.36208L9.0989 13.3139C8.96494 13.4399 8.78764 13.5095 8.60372 13.5084C8.42251 13.5091 8.24813 13.4393 8.11739 13.3139L5.52654 10.838C5.45468 10.7753 5.39624 10.6987 5.35473 10.6128C5.31322 10.527 5.2895 10.4336 5.28499 10.3384C5.28048 10.2431 5.29528 10.1479 5.3285 10.0585C5.36172 9.96912 5.41267 9.88737 5.47829 9.81817C5.54391 9.74897 5.62285 9.69375 5.71035 9.65584C5.79786 9.61792 5.89213 9.59809 5.98749 9.59754C6.08285 9.59698 6.17735 9.61572 6.26528 9.65261C6.35322 9.68951 6.43279 9.74381 6.49921 9.81224L8.60372 11.8195L13.3079 7.33635C13.4455 7.21635 13.6241 7.15416 13.8064 7.16279C13.9887 7.17141 14.1607 7.25019 14.2863 7.38264C14.4119 7.51509 14.4814 7.69097 14.4804 7.8735C14.4793 8.05603 14.4077 8.23109 14.2806 8.36208Z" fill="#0FE3AF"/>
</svg>
