<svg width="55" height="55" viewBox="0 0 55 55" fill="none" xmlns="http://www.w3.org/2000/svg">
<path d="M27.486 17.6166L27.486 17.6166C29.3844 13.8405 29.5702 9.67817 29.396 7.03712L29.395 7.02324L29.3945 7.00934C29.3702 6.36981 29.1788 5.60673 28.8869 4.88157C28.5933 4.15219 28.2328 3.54765 27.9329 3.20395L27.9317 3.20259C27.6245 2.84932 27.1537 2.47502 26.6269 2.16623C26.1067 1.86128 25.6069 1.66418 25.2464 1.59603C24.3512 1.48985 22.3393 1.49023 20.9229 1.71559L20.91 1.71764L20.8971 1.71936L15.4111 2.44605L15.2797 2.46345L15.1483 2.44604L9.66567 1.71934L9.65585 1.71804L9.64606 1.71655C8.16747 1.49069 6.21779 1.48945 5.25779 1.59593C4.92714 1.66417 4.44497 1.85911 3.93258 2.16348C3.41005 2.47387 2.93875 2.8491 2.6324 3.20278L2.62927 3.2064L2.62926 3.2064C2.32869 3.55007 1.96793 4.155 1.66549 4.88977C1.36793 5.61271 1.15991 6.38134 1.10723 7.03469C0.988505 9.69357 1.17831 13.8537 3.01701 17.6272L3.01723 17.6277L3.01726 17.6277L3.01906 17.6315L3.02422 17.6421L3.04023 17.6761C3.05336 17.7042 3.07128 17.7433 3.0933 17.7932C3.13734 17.893 3.1978 18.0356 3.2691 18.2189C3.41167 18.5853 3.59789 19.1146 3.78288 19.7875C4.1527 21.1328 4.519 23.0572 4.519 25.4041C4.519 26.2788 4.44478 27.3846 4.36447 28.5569L4.35556 28.687C4.27668 29.8374 4.19228 31.0684 4.15484 32.2918C4.11594 33.5627 4.12885 34.7979 4.24637 35.8936C4.365 36.9995 4.58323 37.8899 4.90924 38.5174M27.486 17.6166L4.91147 38.5217C4.91072 38.5203 4.90999 38.5189 4.90924 38.5174M27.486 17.6166L27.4822 17.6243L28.3795 18.0658C27.4822 17.6243 27.482 17.6246 27.4819 17.6249L27.4816 17.6256L27.4809 17.6271L27.479 17.6308L27.4739 17.6415L27.4578 17.6754C27.4447 17.7036 27.4267 17.7427 27.4047 17.7926C27.3606 17.8923 27.3 18.035 27.2286 18.2182C27.0858 18.5845 26.8994 19.1137 26.7142 19.7866C26.3439 21.1318 25.9771 23.0562 25.9771 25.4041C25.9771 25.8629 25.9829 26.3752 25.9891 26.9268C26.0061 28.4323 26.0263 30.2303 25.9415 32.0325C25.8245 34.5179 25.5116 36.7848 24.8306 38.1544C24.8305 38.154 24.8287 38.1557 24.8249 38.1592C24.7955 38.1866 24.6447 38.3267 24.1968 38.4677C23.7265 38.6157 23.1126 38.7046 22.481 38.7113C21.846 38.7181 21.2614 38.6413 20.8413 38.5047C20.519 38.3999 20.4165 38.3041 20.3938 38.2826C20.0464 37.0537 19.7863 35.336 19.5514 33.3866C19.4462 32.5143 19.3432 31.5665 19.239 30.609C19.1158 29.4764 18.9912 28.3301 18.8599 27.2793C18.6126 25.3005 18.3153 23.4108 17.8802 22.0051C17.6644 21.308 17.3917 20.6505 17.0211 20.1507C16.6468 19.6459 16.0721 19.1795 15.2783 19.1877C14.5031 19.1794 13.9124 19.6171 13.5035 20.0979C13.0916 20.582 12.7574 21.227 12.4746 21.9244C11.9057 23.3278 11.4397 25.2157 11.0308 27.2009C10.7155 28.7314 10.4257 30.3639 10.1479 31.9288C10.0637 32.4032 9.98057 32.8715 9.89818 33.3287C9.54345 35.2975 9.20469 37.0484 8.84478 38.3079C8.83654 38.3172 8.75595 38.4418 8.40223 38.5912C8.02647 38.7499 7.50679 38.8616 6.94341 38.8947C6.38104 38.9277 5.84249 38.8783 5.43499 38.7648C5.05313 38.6585 4.93338 38.5402 4.91246 38.5196C4.90922 38.5164 4.90835 38.5155 4.90924 38.5174M27.486 17.6166L4.90924 38.5174" fill="#0FE3AF" stroke="#0152A8" stroke-width="2"/>
<path d="M22.8214 6.8605L22.689 14.8091" stroke="#0152A8" stroke-width="2" stroke-linecap="round" stroke-linejoin="round"/>
</svg>
