<svg width="56" height="55" viewBox="0 0 56 55" fill="none" xmlns="http://www.w3.org/2000/svg">
<path d="M30.4935 13.0579L11.3188 32.2325C11.1622 32.3899 11.0381 32.5767 10.9538 32.7821C10.8694 32.9875 10.8264 33.2075 10.8272 33.4296V44.695H22.0925C22.3146 44.6957 22.5346 44.6527 22.74 44.5683C22.9454 44.484 23.1322 44.3599 23.2896 44.2033L42.4643 25.0287" fill="#0FE3AF"/>
<path d="M30.4935 13.0579L11.3188 32.2325C11.1622 32.3899 11.0381 32.5767 10.9538 32.7821C10.8694 32.9875 10.8264 33.2075 10.8272 33.4296V44.695H22.0925C22.3146 44.6957 22.5346 44.6527 22.74 44.5683C22.9454 44.484 23.1322 44.3599 23.2896 44.2033L42.4643 25.0287" stroke="#0152A8" stroke-width="2" stroke-linecap="round" stroke-linejoin="round"/>
<path d="M39.8994 5.3623L50.1601 15.623" stroke="#0152A8" stroke-width="2" stroke-linecap="round" stroke-linejoin="round"/>
<path d="M27.9277 10.4924L45.0289 27.5936" stroke="#0152A8" stroke-width="2" stroke-linecap="round" stroke-linejoin="round"/>
<path d="M22.3701 21.1809L27.928 26.7388" stroke="#0152A8" stroke-width="2" stroke-linecap="round" stroke-linejoin="round"/>
<path d="M16.3848 27.1663L21.9426 32.7241" stroke="#0152A8" stroke-width="2" stroke-linecap="round" stroke-linejoin="round"/>
<path d="M36.4785 19.043L45.0291 10.4924" stroke="#0152A8" stroke-width="2" stroke-linecap="round" stroke-linejoin="round"/>
<path d="M10.8276 44.6951L5.69727 49.8254" stroke="#0152A8" stroke-width="2" stroke-linecap="round" stroke-linejoin="round"/>
</svg>
