<svg width="54" height="55" viewBox="0 0 54 55" fill="none" xmlns="http://www.w3.org/2000/svg">
<path d="M17.1948 17.3608L6.489 28.1001C2.6669 31.9222 2.66383 38.116 6.48213 41.9343C10.3004 45.7526 16.4942 45.7495 20.3163 41.9274L30.4495 31.6563L23.3016 24.0922L17.1948 17.3608Z" fill="#0FE3AF" stroke="#0152A8" stroke-width="2" stroke-linecap="round" stroke-linejoin="round"/>
<path d="M27.2199 7.36873L6.48888 28.0997C2.66678 31.9218 2.66371 38.1156 6.48201 41.9339C10.3003 45.7522 16.4941 45.7491 20.3162 41.927L41.0472 21.196C44.8693 17.3739 44.8724 11.1802 41.0541 7.36185C37.2358 3.54355 31.042 3.54663 27.2199 7.36873Z" stroke="#0152A8" stroke-width="2" stroke-linecap="round" stroke-linejoin="round"/>
<path d="M16.8496 17.75L30.6769 31.5772" stroke="#0152A8" stroke-width="2" stroke-linecap="round" stroke-linejoin="round"/>
<path d="M30.6982 21.2275L35.9699 16.1287" stroke="#0152A8" stroke-width="2" stroke-linecap="round" stroke-linejoin="round"/>
</svg>
