<svg width="55" height="55" viewBox="0 0 55 55" fill="none" xmlns="http://www.w3.org/2000/svg">
<path d="M32.903 6.4485C28.3475 6.22696 25.8378 10.3634 25.1523 12.4594L25.4687 35.1579C25.3105 38.506 26.6392 45.0203 33.2194 44.2926C39.7996 43.565 41.0756 37.8996 40.891 35.1579C41.8006 34.9602 46.2691 32.7852 47.0995 26.2999C47.7639 21.1117 43.2373 18.1801 40.891 17.3629V16.572V13.9225C40.891 10.6403 38.5975 6.72541 32.903 6.4485Z" fill="#0FE3AF"/>
<path d="M25.1113 34.7321V15.8462" stroke="#0152A8" stroke-width="2" stroke-linecap="round" stroke-linejoin="round"/>
<path d="M17.2431 28.437C18.7995 28.437 20.3209 28.8985 21.615 29.7632C22.909 30.6279 23.9177 31.8569 24.5132 33.2947C25.1088 34.7326 25.2647 36.3149 24.961 37.8413C24.6574 39.3678 23.908 40.7699 22.8074 41.8704C21.7069 42.9709 20.3048 43.7204 18.7783 44.024C17.2519 44.3277 15.6696 44.1718 14.2318 43.5762C12.7939 42.9806 11.5649 41.972 10.7002 40.678C9.83554 39.3839 9.37402 37.8625 9.37402 36.3061V34.988" stroke="#0152A8" stroke-width="2" stroke-linecap="round" stroke-linejoin="round"/>
<path d="M32.9804 28.437C31.4241 28.437 29.9027 28.8985 28.6086 29.7632C27.3145 30.6279 26.3059 31.8569 25.7103 33.2947C25.1147 34.7326 24.9589 36.3149 25.2625 37.8413C25.5662 39.3678 26.3156 40.7699 27.4161 41.8704C28.5167 42.9709 29.9188 43.7204 31.4453 44.024C32.9717 44.3277 34.5539 44.1718 35.9918 43.5762C37.4297 42.9806 38.6587 41.972 39.5234 40.678C40.388 39.3839 40.8496 37.8625 40.8496 36.3061V34.988" stroke="#0152A8" stroke-width="2" stroke-linecap="round" stroke-linejoin="round"/>
<path d="M14.0949 35.5185H12.521C10.289 35.5245 8.12701 34.7397 6.41862 33.3032C4.71022 31.8668 3.56588 29.8716 3.18862 27.6717C2.81135 25.4718 3.22556 23.2093 4.35774 21.2858C5.48993 19.3622 7.26689 17.9019 9.37339 17.1638V14.2719C9.37339 12.1849 10.2024 10.1834 11.6782 8.70764C13.1539 7.2319 15.1555 6.40283 17.2425 6.40283C19.3295 6.40283 21.3311 7.2319 22.8068 8.70764C24.2825 10.1834 25.1116 12.1849 25.1116 14.2719V36.3055" stroke="#0152A8" stroke-width="2" stroke-linecap="round" stroke-linejoin="round"/>
<path d="M36.1281 35.5185H37.7019C39.9339 35.5245 42.0959 34.7397 43.8043 33.3032C45.5127 31.8668 46.6571 29.8716 47.0343 27.6717C47.4116 25.4718 46.9974 23.2093 45.8652 21.2858C44.733 19.3622 42.956 17.9019 40.8495 17.1638V14.2719C40.8495 12.1849 40.0205 10.1834 38.5447 8.70764C37.069 7.2319 35.0675 6.40283 32.9804 6.40283C30.8934 6.40283 28.8919 7.2319 27.4161 8.70764C25.9404 10.1834 25.1113 12.1849 25.1113 14.2719" stroke="#0152A8" stroke-width="2" stroke-linecap="round" stroke-linejoin="round"/>
<path d="M17.2428 16.6331V18.2069C17.2428 19.6678 16.6624 21.0689 15.6294 22.1019C14.5964 23.1349 13.1953 23.7153 11.7344 23.7153" stroke="#0152A8" stroke-width="2" stroke-linecap="round" stroke-linejoin="round"/>
<path d="M32.9814 16.6333V18.2071C32.9814 19.668 33.5618 21.0691 34.5948 22.1021C35.6278 23.1352 37.0289 23.7155 38.4898 23.7155" stroke="#0152A8" stroke-width="2" stroke-linecap="round" stroke-linejoin="round"/>
</svg>
