<svg width="175" height="58" viewBox="0 0 175 58" fill="none" xmlns="http://www.w3.org/2000/svg">
<rect x="13.5176" y="45.21" width="52.1096" height="25.1975" rx="12.5988" transform="rotate(-60 13.5176 45.21)" fill="#0152A8"/>
<rect x="26.0547" y="57.9189" width="52.1096" height="25.1975" rx="12.5988" transform="rotate(-120 26.0547 57.9189)" fill="#0FE3AF"/>
<path d="M19.7468 34.3827C16.2556 40.4162 18.3336 48.1348 24.3882 51.6226C30.4428 55.1104 38.1812 53.0467 41.6724 47.0132L41.8104 46.7747C43.8123 43.0528 43.8972 38.4167 41.6268 34.4932L30.6436 15.5142L19.7468 34.3827Z" fill="#3DB8ED"/>
<path d="M162.682 40.0744C161.645 40.0744 160.711 39.8898 159.88 39.5205C159.056 39.144 158.403 38.5901 157.92 37.8585C157.444 37.127 157.206 36.225 157.206 35.1526C157.206 34.2293 157.377 33.4658 157.717 32.8621C158.058 32.2584 158.524 31.7754 159.113 31.4132C159.703 31.051 160.367 30.7776 161.105 30.5929C161.851 30.4011 162.622 30.2627 163.417 30.1774C164.376 30.078 165.154 29.9892 165.75 29.9111C166.347 29.8259 166.78 29.698 167.05 29.5276C167.327 29.35 167.465 29.0766 167.465 28.7073V28.6433C167.465 27.8408 167.227 27.2193 166.752 26.779C166.276 26.3386 165.59 26.1185 164.695 26.1185C163.751 26.1185 163.002 26.3244 162.448 26.7364C161.901 27.1483 161.531 27.6348 161.34 28.1959L157.739 27.6845C158.023 26.6902 158.492 25.8592 159.145 25.1916C159.798 24.5169 160.597 24.0126 161.542 23.6788C162.487 23.3379 163.531 23.1675 164.674 23.1675C165.462 23.1675 166.247 23.2598 167.029 23.4445C167.81 23.6291 168.524 23.9345 169.17 24.3607C169.816 24.7797 170.335 25.3514 170.725 26.0759C171.123 26.8003 171.322 27.7058 171.322 28.7925V39.7442H167.614V37.4963H167.487C167.252 37.9509 166.922 38.377 166.496 38.7747C166.077 39.1653 165.548 39.4814 164.908 39.7229C164.276 39.9573 163.534 40.0744 162.682 40.0744ZM163.683 37.2406C164.457 37.2406 165.129 37.0879 165.697 36.7825C166.265 36.47 166.702 36.0581 167.007 35.5467C167.32 35.0354 167.476 34.4778 167.476 33.8742V31.9459C167.355 32.0453 167.149 32.1377 166.858 32.2229C166.574 32.3081 166.254 32.3827 165.899 32.4466C165.544 32.5105 165.193 32.5673 164.845 32.6171C164.497 32.6668 164.195 32.7094 163.939 32.7449C163.364 32.823 162.849 32.9509 162.394 33.1284C161.94 33.306 161.581 33.5546 161.318 33.8742C161.055 34.1867 160.924 34.5915 160.924 35.0886C160.924 35.7989 161.183 36.3351 161.702 36.6973C162.22 37.0595 162.881 37.2406 163.683 37.2406Z" fill="#1C1C1C"/>
<path d="M131.049 39.7442V23.3805H134.735V26.1611H134.927C135.268 25.2236 135.832 24.4921 136.621 23.9665C137.409 23.4338 138.35 23.1675 139.444 23.1675C140.552 23.1675 141.486 23.4374 142.246 23.9771C143.013 24.5098 143.552 25.2378 143.865 26.1611H144.035C144.398 25.252 145.008 24.5276 145.868 23.9878C146.734 23.4409 147.76 23.1675 148.947 23.1675C150.452 23.1675 151.681 23.6433 152.633 24.595C153.584 25.5467 154.06 26.9352 154.06 28.7605V39.7442H150.193V29.3571C150.193 28.3415 149.923 27.5993 149.383 27.1305C148.844 26.6547 148.183 26.4168 147.402 26.4168C146.471 26.4168 145.743 26.708 145.218 27.2903C144.699 27.8656 144.44 28.6149 144.44 29.5382V39.7442H140.658V29.1973C140.658 28.3521 140.403 27.6774 139.891 27.1732C139.387 26.6689 138.726 26.4168 137.91 26.4168C137.356 26.4168 136.851 26.5588 136.397 26.8429C135.942 27.1199 135.58 27.5141 135.31 28.0254C135.04 28.5297 134.905 29.1192 134.905 29.7939V39.7442H131.049Z" fill="#1C1C1C"/>
<path d="M119.154 39.744V23.3804H122.894V26.1076H123.064C123.362 25.163 123.874 24.4351 124.598 23.9237C125.33 23.4052 126.164 23.146 127.102 23.146C127.315 23.146 127.553 23.1566 127.816 23.178C128.085 23.1922 128.309 23.217 128.487 23.2525V26.8001C128.323 26.7433 128.064 26.6936 127.709 26.651C127.361 26.6013 127.024 26.5764 126.697 26.5764C125.994 26.5764 125.362 26.7291 124.801 27.0345C124.247 27.3328 123.81 27.7483 123.49 28.2809C123.171 28.8136 123.011 29.428 123.011 30.124V39.744H119.154Z" fill="#1C1C1C"/>
<path d="M106.637 40.0744C105.6 40.0744 104.666 39.8898 103.835 39.5205C103.011 39.144 102.358 38.5901 101.875 37.8585C101.399 37.127 101.161 36.225 101.161 35.1526C101.161 34.2293 101.332 33.4658 101.672 32.8621C102.013 32.2584 102.479 31.7754 103.068 31.4132C103.658 31.051 104.322 30.7776 105.06 30.5929C105.806 30.4011 106.577 30.2627 107.372 30.1774C108.331 30.078 109.109 29.9892 109.705 29.9111C110.302 29.8259 110.735 29.698 111.005 29.5276C111.282 29.35 111.42 29.0766 111.42 28.7073V28.6433C111.42 27.8408 111.182 27.2193 110.707 26.779C110.231 26.3386 109.545 26.1185 108.65 26.1185C107.706 26.1185 106.957 26.3244 106.403 26.7364C105.856 27.1483 105.486 27.6348 105.295 28.1959L101.694 27.6845C101.978 26.6902 102.447 25.8592 103.1 25.1916C103.753 24.5169 104.552 24.0126 105.497 23.6788C106.442 23.3379 107.486 23.1675 108.629 23.1675C109.418 23.1675 110.202 23.2598 110.984 23.4445C111.765 23.6291 112.479 23.9345 113.125 24.3607C113.771 24.7797 114.29 25.3514 114.68 26.0759C115.078 26.8003 115.277 27.7058 115.277 28.7925V39.7442H111.57V37.4963H111.442C111.207 37.9509 110.877 38.377 110.451 38.7747C110.032 39.1653 109.503 39.4814 108.864 39.7229C108.231 39.9573 107.489 40.0744 106.637 40.0744ZM107.638 37.2406C108.413 37.2406 109.084 37.0879 109.652 36.7825C110.22 36.47 110.657 36.0581 110.962 35.5467C111.275 35.0354 111.431 34.4778 111.431 33.8742V31.9459C111.31 32.0453 111.104 32.1377 110.813 32.2229C110.529 32.3081 110.209 32.3827 109.854 32.4466C109.499 32.5105 109.148 32.5673 108.8 32.6171C108.452 32.6668 108.15 32.7094 107.894 32.7449C107.319 32.823 106.804 32.9509 106.349 33.1284C105.895 33.306 105.536 33.5546 105.273 33.8742C105.011 34.1867 104.879 34.5915 104.879 35.0886C104.879 35.7989 105.138 36.3351 105.657 36.6973C106.175 37.0595 106.836 37.2406 107.638 37.2406Z" fill="#1C1C1C"/>
<path d="M87.3858 30.1559V39.744H83.5293V17.9258H87.3006V26.1609H87.4924C87.8759 25.2376 88.4689 24.5096 89.2715 23.9769C90.0811 23.4371 91.111 23.1673 92.361 23.1673C93.4973 23.1673 94.4881 23.4052 95.3333 23.881C96.1784 24.3569 96.8319 25.0529 97.2935 25.9691C97.7623 26.8853 97.9966 28.0039 97.9966 29.3249V39.744H94.1401V29.9215C94.1401 28.8207 93.856 27.9648 93.2878 27.354C92.7267 26.7362 91.9384 26.4272 90.9228 26.4272C90.2409 26.4272 89.6301 26.5763 89.0904 26.8746C88.5577 27.1658 88.1387 27.5884 87.8333 28.1424C87.535 28.6964 87.3858 29.3675 87.3858 30.1559Z" fill="#1C1C1C"/>
<path d="M64.3936 39.744V17.9258H72.5754C74.2515 17.9258 75.6578 18.2383 76.7941 18.8633C77.9376 19.4883 78.8005 20.3477 79.3829 21.4414C79.9724 22.5281 80.2671 23.7638 80.2671 25.1488C80.2671 26.5479 79.9724 27.7908 79.3829 28.8775C78.7934 29.9641 77.9234 30.82 76.7728 31.445C75.6222 32.0629 74.2053 32.3718 72.5221 32.3718H67.0995V29.1225H71.9894C72.9695 29.1225 73.7721 28.9521 74.3971 28.6112C75.0221 28.2702 75.4838 27.8015 75.782 27.2049C76.0874 26.6083 76.2401 25.9229 76.2401 25.1488C76.2401 24.3746 76.0874 23.6928 75.782 23.1033C75.4838 22.5138 75.0186 22.0558 74.3865 21.729C73.7615 21.3952 72.9553 21.2283 71.9681 21.2283H68.346V39.744H64.3936Z" fill="#1C1C1C"/>
</svg>
